<?xml version="1.0" encoding="UTF-8" standalone="no"?>
<svg
   width="3791.3242"
   height="566.28284"
   viewBox="0 0 3791.3242 566.28284"
   version="1.1"
   xml:space="preserve"
   style="clip-rule:evenodd;fill-rule:evenodd;stroke-linejoin:round;stroke-miterlimit:2"
   id="svg23"
   sodipodi:docname="logo-reverse.svg"
   inkscape:export-filename="logo-reverse.svg"
   inkscape:export-xdpi="96"
   inkscape:export-ydpi="96"
   inkscape:version="1.3.2 (091e20ef0f, 2023-11-25)"
   xmlns:inkscape="http://www.inkscape.org/namespaces/inkscape"
   xmlns:sodipodi="http://sodipodi.sourceforge.net/DTD/sodipodi-0.dtd"
   xmlns="http://www.w3.org/2000/svg"
   xmlns:svg="http://www.w3.org/2000/svg"><defs
   id="defs23" /><sodipodi:namedview
   id="namedview23"
   pagecolor="#ffffff"
   bordercolor="#000000"
   borderopacity="0.25"
   inkscape:showpageshadow="2"
   inkscape:pageopacity="0.0"
   inkscape:pagecheckerboard="0"
   inkscape:deskcolor="#d1d1d1"
   showgrid="false"
   inkscape:zoom="0.14377778"
   inkscape:cx="1895.2859"
   inkscape:cy="285.16229"
   inkscape:window-width="1322"
   inkscape:window-height="694"
   inkscape:window-x="0"
   inkscape:window-y="0"
   inkscape:window-maximized="1"
   inkscape:current-layer="svg23" />
    <g
   transform="translate(-3604.3352,-11816.86)"
   id="g23">
        <g
   id="W_MainRectangle"
   transform="matrix(1.5,0,0,0.7,-1562.5,11050)">
            <rect
   x="3208.3301"
   y="0"
   width="3000"
   height="3000"
   style="fill:none"
   id="rect1" />
            <g
   transform="matrix(1.62043,0,0,3.47235,2636.02,-4633.86)"
   id="g22">
                <g
   transform="matrix(3.23409,0,0,3.23409,438.018,995.306)"
   id="g6">
                    <path
   d="m 230.476,203.576 h 22.503 v 8.416 h -13.964 v 8.231 h 13.964 v 8.292 h -13.964 v 20.408 h -8.539 z"
   style="fill:#ffffff;fill-rule:nonzero"
   id="path1" />
                    <path
   d="m 293.445,202.435 c 6.412,0 11.919,2.323 16.523,6.967 4.624,4.645 6.936,10.307 6.936,16.986 0,6.618 -2.281,12.218 -6.844,16.801 -4.541,4.583 -10.06,6.875 -16.554,6.875 -6.802,0 -12.454,-2.354 -16.955,-7.06 -4.501,-4.706 -6.751,-10.296 -6.751,-16.77 0,-4.336 1.048,-8.323 3.144,-11.961 2.097,-3.638 4.974,-6.515 8.632,-8.632 3.679,-2.137 7.635,-3.206 11.869,-3.206 z m -0.093,8.447 c -4.192,0 -7.717,1.459 -10.574,4.378 -2.856,2.918 -4.285,6.627 -4.285,11.128 0,5.015 1.799,8.981 5.395,11.9 2.795,2.281 6.001,3.421 9.618,3.421 4.09,0 7.573,-1.479 10.451,-4.439 2.877,-2.959 4.315,-6.607 4.315,-10.943 0,-4.316 -1.448,-7.964 -4.346,-10.944 -2.898,-3.001 -6.423,-4.501 -10.574,-4.501 z"
   style="fill:#ffffff;fill-rule:nonzero"
   id="path2" />
                    <path
   d="m 336.992,203.576 h 9.156 c 5.015,0 8.58,0.452 10.697,1.356 2.137,0.884 3.854,2.364 5.148,4.44 1.295,2.075 1.942,4.531 1.942,7.367 0,2.98 -0.719,5.477 -2.158,7.491 -1.418,1.994 -3.565,3.504 -6.442,4.532 l 10.727,20.161 h -9.433 l -10.204,-19.205 h -0.801 v 19.205 h -8.632 z m 8.632,17.726 h 2.713 c 2.754,0 4.644,-0.36 5.672,-1.079 1.048,-0.72 1.572,-1.912 1.572,-3.576 0,-0.987 -0.257,-1.84 -0.77,-2.559 -0.514,-0.74 -1.203,-1.264 -2.066,-1.572 -0.863,-0.329 -2.446,-0.493 -4.747,-0.493 h -2.374 z"
   style="fill:#ffffff;fill-rule:nonzero"
   id="path3" />
                    <path
   d="m 384.394,248.923 v -45.347 h 7.121 c 4.131,0 7.152,0.267 9.063,0.802 2.713,0.719 4.871,2.055 6.474,4.007 1.603,1.952 2.404,4.254 2.404,6.905 0,1.727 -0.37,3.299 -1.11,4.717 -0.719,1.397 -1.901,2.713 -3.545,3.946 2.754,1.295 4.768,2.918 6.042,4.871 1.275,1.931 1.912,4.223 1.912,6.874 0,2.548 -0.658,4.871 -1.973,6.967 -1.316,2.096 -3.011,3.668 -5.087,4.717 -2.076,1.027 -4.942,1.541 -8.601,1.541 z m 8.631,-37.116 v 9.556 h 1.881 c 2.096,0 3.648,-0.442 4.655,-1.325 1.027,-0.884 1.541,-2.086 1.541,-3.607 0,-1.418 -0.483,-2.538 -1.449,-3.36 -0.966,-0.843 -2.435,-1.264 -4.408,-1.264 z m 0,17.263 v 11.622 h 2.158 c 3.576,0 5.981,-0.452 7.214,-1.356 1.253,-0.905 1.88,-2.22 1.88,-3.946 0,-1.953 -0.729,-3.494 -2.189,-4.624 -1.459,-1.131 -3.884,-1.696 -7.275,-1.696 z"
   style="fill:#ffffff;fill-rule:nonzero"
   id="path4" />
                    <path
   d="m 432.411,203.576 h 24.755 v 8.447 h -16.185 v 8.2 h 16.185 v 8.292 h -16.185 v 11.93 h 16.185 v 8.478 h -24.755 z"
   style="fill:#ffffff;fill-rule:nonzero"
   id="path5" />
                    <path
   d="m 500.343,209.741 -6.381,5.642 c -2.24,-3.124 -4.521,-4.686 -6.843,-4.686 -1.131,0 -2.056,0.308 -2.775,0.925 -0.719,0.596 -1.079,1.274 -1.079,2.035 0,0.76 0.257,1.479 0.771,2.157 0.699,0.905 2.805,2.847 6.319,5.827 3.289,2.754 5.282,4.49 5.981,5.21 1.747,1.767 2.98,3.463 3.699,5.086 0.74,1.603 1.11,3.36 1.11,5.272 0,3.719 -1.284,6.792 -3.853,9.217 -2.569,2.425 -5.919,3.638 -10.05,3.638 -3.227,0 -6.042,-0.792 -8.447,-2.374 -2.384,-1.583 -4.429,-4.069 -6.134,-7.46 l 7.244,-4.378 c 2.178,4.008 4.686,6.011 7.522,6.011 1.48,0 2.723,-0.431 3.73,-1.294 1.007,-0.863 1.51,-1.86 1.51,-2.991 0,-1.027 -0.38,-2.055 -1.14,-3.082 -0.761,-1.028 -2.435,-2.6 -5.025,-4.717 -4.932,-4.028 -8.118,-7.131 -9.556,-9.31 -1.439,-2.199 -2.158,-4.387 -2.158,-6.566 0,-3.144 1.192,-5.836 3.576,-8.077 2.404,-2.26 5.364,-3.391 8.878,-3.391 2.261,0 4.408,0.524 6.443,1.573 2.055,1.048 4.274,2.959 6.658,5.733 z"
   style="fill:#ffffff;fill-rule:nonzero"
   id="path6" />
                </g>
                <g
   transform="matrix(0.736035,0,0,0.736035,351.828,881.953)"
   id="g7">
                    <path
   d="m 526.595,1260.02 c -4.341,2.36 -6.822,3.97 -6.822,3.97 l -40.371,26.9 -0.011,0.01 c -1.123,0.74 -86.702,56.83 -215.681,56.83 h -63.806 l 245.175,-163.38 c 0.663,-0.45 1.328,-0.89 1.992,-1.33 39.383,-25.29 82.883,2.1 82.883,2.1 l 102.159,67.11 c -1.301,-0.85 -2.617,-1.64 -3.945,-2.38 l 77.855,51.45 c 6.573,4 13.477,8.36 20.729,13.11 0.652,0.43 1.305,0.86 1.96,1.28 l 48.765,32.04 h -51.003 c -114.67,0 -149.954,-35.2 -150.667,-60.08 0,0 -0.988,-31.39 40.987,-25.23 l -10.663,-5.84 c -37.741,-17.29 -73.828,0.41 -78.923,3.1 -0.208,0.12 -0.413,0.23 -0.613,0.34 z m -59.828,-90.12 185.325,-121.07 327.525,215.66 h -63.805 c -128.98,0 -214.559,-56.09 -215.681,-56.83 h -0.012 l -81.165,-51.5 c 0,0 -60.834,-45.61 -152.187,13.74 z"
   style="fill:#ffffff"
   id="path7" />
                </g>
                <g
   transform="matrix(3.19579,0,0,3.19579,446.822,1005.29)"
   id="g21">
                    <path
   d="m 242.941,263.453 -1.051,0.806 c -0.579,-0.754 -1.277,-1.325 -2.092,-1.711 -0.809,-0.393 -1.699,-0.589 -2.671,-0.589 -1.063,0 -2.047,0.257 -2.953,0.77 -0.905,0.507 -1.609,1.192 -2.11,2.056 -0.495,0.857 -0.742,1.823 -0.742,2.898 0,1.624 0.555,2.979 1.666,4.066 1.117,1.087 2.524,1.63 4.22,1.63 1.866,0 3.426,-0.731 4.682,-2.192 l 1.051,0.797 c -0.664,0.846 -1.494,1.501 -2.491,1.966 -0.99,0.458 -2.098,0.688 -3.323,0.688 -2.331,0 -4.169,-0.776 -5.516,-2.328 -1.129,-1.31 -1.693,-2.892 -1.693,-4.745 0,-1.95 0.682,-3.589 2.047,-4.918 1.37,-1.334 3.085,-2.001 5.144,-2.001 1.243,0 2.366,0.247 3.368,0.742 1.003,0.489 1.824,1.178 2.464,2.065 z"
   style="fill:#ffffff;fill-rule:nonzero"
   id="path8" />
                    <path
   d="m 259.009,260.646 c 2.017,0 3.704,0.673 5.063,2.019 1.358,1.347 2.038,3.004 2.038,4.972 0,1.95 -0.68,3.605 -2.038,4.963 -1.353,1.359 -3.004,2.038 -4.954,2.038 -1.974,0 -3.641,-0.676 -4.999,-2.029 -1.358,-1.352 -2.038,-2.988 -2.038,-4.908 0,-1.28 0.308,-2.467 0.924,-3.559 0.622,-1.093 1.467,-1.948 2.536,-2.563 1.069,-0.622 2.225,-0.933 3.468,-0.933 z m 0.064,1.304 c -0.984,0 -1.917,0.257 -2.799,0.77 -0.881,0.513 -1.569,1.204 -2.064,2.074 -0.495,0.869 -0.743,1.838 -0.743,2.907 0,1.581 0.546,2.919 1.639,4.012 1.099,1.086 2.421,1.63 3.967,1.63 1.032,0 1.986,-0.251 2.862,-0.752 0.881,-0.501 1.566,-1.186 2.055,-2.056 0.495,-0.869 0.743,-1.835 0.743,-2.898 0,-1.056 -0.248,-2.01 -0.743,-2.862 -0.489,-0.857 -1.18,-1.542 -2.073,-2.055 -0.894,-0.513 -1.842,-0.77 -2.844,-0.77 z"
   style="fill:#ffffff;fill-rule:nonzero"
   id="path9" />
                    <path
   d="m 281.273,260.981 6.212,13.322 h -1.431 l -2.092,-4.384 h -5.741 l -2.083,4.384 h -1.486 l 6.295,-13.322 z m -0.163,2.825 -2.292,4.827 h 4.556 z"
   style="fill:#ffffff;fill-rule:nonzero"
   id="path10" />
                    <path
   d="m 295.222,271.821 1.132,-0.679 c 0.797,1.467 1.718,2.201 2.762,2.201 0.447,0 0.867,-0.103 1.259,-0.308 0.392,-0.211 0.691,-0.492 0.897,-0.842 0.205,-0.351 0.308,-0.722 0.308,-1.114 0,-0.447 -0.151,-0.885 -0.453,-1.314 -0.417,-0.591 -1.178,-1.304 -2.282,-2.137 -1.111,-0.839 -1.803,-1.446 -2.074,-1.82 -0.471,-0.628 -0.707,-1.307 -0.707,-2.038 0,-0.579 0.139,-1.108 0.417,-1.585 0.278,-0.477 0.667,-0.851 1.168,-1.123 0.507,-0.277 1.057,-0.416 1.648,-0.416 0.628,0 1.214,0.157 1.757,0.471 0.55,0.308 1.129,0.878 1.739,1.711 l -1.087,0.824 c -0.501,-0.664 -0.929,-1.101 -1.286,-1.313 -0.35,-0.211 -0.733,-0.317 -1.15,-0.317 -0.537,0 -0.978,0.163 -1.322,0.489 -0.338,0.326 -0.507,0.728 -0.507,1.205 0,0.29 0.06,0.57 0.181,0.842 0.121,0.272 0.341,0.568 0.661,0.888 0.175,0.169 0.749,0.612 1.721,1.331 1.153,0.851 1.944,1.609 2.372,2.273 0.429,0.664 0.643,1.331 0.643,2.001 0,0.966 -0.368,1.806 -1.104,2.518 -0.731,0.713 -1.621,1.069 -2.672,1.069 -0.809,0 -1.543,-0.215 -2.201,-0.643 -0.658,-0.435 -1.265,-1.159 -1.82,-2.174 z"
   style="fill:#ffffff;fill-rule:nonzero"
   id="path11" />
                    <path
   d="m 311.562,262.276 v -1.295 h 7.309 v 1.295 H 315.9 v 12.027 h -1.358 v -12.027 z"
   style="fill:#ffffff;fill-rule:nonzero"
   id="path12" />
                    <path
   d="m 333.273,260.981 6.213,13.322 h -1.431 l -2.092,-4.384 h -5.742 l -2.083,4.384 h -1.485 l 6.294,-13.322 z m -0.163,2.825 -2.291,4.827 h 4.555 z"
   style="fill:#ffffff;fill-rule:nonzero"
   id="path13" />
                    <path
   d="m 348.599,260.981 h 1.34 v 12.036 h 5.117 v 1.286 h -6.457 z"
   style="fill:#ffffff;fill-rule:nonzero"
   id="path14" />
                    <path
   d="m 376.435,260.981 h 2.626 c 1.056,0 1.869,0.127 2.436,0.38 0.568,0.248 1.014,0.631 1.34,1.15 0.332,0.52 0.498,1.096 0.498,1.73 0,0.592 -0.144,1.132 -0.434,1.621 -0.29,0.483 -0.716,0.876 -1.277,1.178 0.694,0.235 1.228,0.513 1.603,0.833 0.374,0.314 0.664,0.697 0.869,1.15 0.212,0.447 0.317,0.933 0.317,1.458 0,1.069 -0.392,1.974 -1.177,2.717 -0.779,0.736 -1.827,1.105 -3.143,1.105 h -3.658 z m 1.304,1.304 v 4.266 h 0.76 c 0.924,0 1.603,-0.085 2.038,-0.254 0.435,-0.175 0.779,-0.447 1.032,-0.815 0.254,-0.374 0.381,-0.788 0.381,-1.241 0,-0.61 -0.214,-1.087 -0.643,-1.431 -0.423,-0.35 -1.099,-0.525 -2.029,-0.525 z m 0,5.606 v 5.108 h 1.648 c 0.972,0 1.684,-0.094 2.137,-0.281 0.453,-0.193 0.815,-0.492 1.087,-0.897 0.278,-0.404 0.417,-0.842 0.417,-1.313 0,-0.592 -0.194,-1.108 -0.58,-1.549 -0.386,-0.44 -0.918,-0.742 -1.594,-0.905 -0.453,-0.109 -1.241,-0.163 -2.364,-0.163 z"
   style="fill:#ffffff;fill-rule:nonzero"
   id="path15" />
                    <path
   d="m 394.142,260.981 h 1.332 v 8.042 c 0,0.954 0.018,1.549 0.054,1.784 0.066,0.525 0.22,0.966 0.462,1.322 0.241,0.35 0.613,0.646 1.114,0.888 0.501,0.235 1.005,0.353 1.512,0.353 0.441,0 0.864,-0.094 1.268,-0.281 0.405,-0.187 0.743,-0.447 1.014,-0.779 0.272,-0.332 0.471,-0.733 0.598,-1.204 0.091,-0.338 0.136,-1.033 0.136,-2.083 v -8.042 h 1.331 v 8.042 c 0,1.189 -0.118,2.152 -0.353,2.889 -0.229,0.73 -0.694,1.367 -1.395,1.911 -0.694,0.543 -1.536,0.815 -2.526,0.815 -1.075,0 -1.996,-0.257 -2.763,-0.77 -0.766,-0.513 -1.279,-1.192 -1.539,-2.038 -0.163,-0.519 -0.245,-1.455 -0.245,-2.807 z"
   style="fill:#ffffff;fill-rule:nonzero"
   id="path16" />
                    <rect
   x="413.10001"
   y="260.98099"
   width="1.331"
   height="13.322"
   style="fill:#ffffff;fill-rule:nonzero"
   id="rect16" />
                    <path
   d="m 424.532,260.981 h 1.34 v 12.036 h 5.117 v 1.286 h -6.457 z"
   style="fill:#ffffff;fill-rule:nonzero"
   id="path17" />
                    <path
   d="m 440.148,274.303 v -13.322 h 2.762 c 1.992,0 3.438,0.16 4.338,0.48 1.292,0.453 2.3,1.238 3.025,2.355 0.73,1.116 1.095,2.448 1.095,3.993 0,1.335 -0.289,2.509 -0.869,3.523 -0.574,1.015 -1.322,1.763 -2.246,2.246 -0.918,0.483 -2.207,0.725 -3.867,0.725 z m 1.277,-1.259 h 1.539 c 1.842,0 3.118,-0.115 3.831,-0.344 1.002,-0.326 1.79,-0.912 2.364,-1.757 0.573,-0.851 0.86,-1.89 0.86,-3.116 0,-1.286 -0.311,-2.384 -0.933,-3.296 -0.622,-0.912 -1.488,-1.537 -2.599,-1.875 -0.833,-0.253 -2.207,-0.38 -4.121,-0.38 h -0.941 z"
   style="fill:#ffffff;fill-rule:nonzero"
   id="path18" />
                    <path
   d="m 461.007,260.981 h 7.634 v 1.313 h -6.303 v 4.166 h 6.249 v 1.304 h -6.249 v 5.226 h 6.249 v 1.313 h -7.58 z"
   style="fill:#ffffff;fill-rule:nonzero"
   id="path19" />
                    <path
   d="m 478.063,260.981 h 2.653 c 1.479,0 2.482,0.06 3.007,0.181 0.791,0.181 1.434,0.571 1.929,1.168 0.495,0.592 0.743,1.322 0.743,2.192 0,0.724 -0.173,1.361 -0.517,1.911 -0.338,0.549 -0.824,0.966 -1.458,1.25 -0.634,0.277 -1.509,0.419 -2.626,0.425 l 4.791,6.195 h -1.649 l -4.781,-6.195 h -0.761 v 6.195 h -1.331 z m 1.331,1.304 v 4.528 l 2.291,0.018 c 0.888,0 1.543,-0.084 1.965,-0.253 0.429,-0.169 0.761,-0.438 0.997,-0.806 0.241,-0.375 0.362,-0.791 0.362,-1.25 0,-0.447 -0.121,-0.851 -0.362,-1.214 -0.242,-0.368 -0.559,-0.631 -0.951,-0.788 -0.393,-0.157 -1.045,-0.235 -1.956,-0.235 z"
   style="fill:#ffffff;fill-rule:nonzero"
   id="path20" />
                    <path
   d="m 494.919,271.821 1.132,-0.679 c 0.797,1.467 1.718,2.201 2.762,2.201 0.447,0 0.867,-0.103 1.259,-0.308 0.393,-0.211 0.692,-0.492 0.897,-0.842 0.205,-0.351 0.308,-0.722 0.308,-1.114 0,-0.447 -0.151,-0.885 -0.453,-1.314 -0.417,-0.591 -1.177,-1.304 -2.282,-2.137 -1.111,-0.839 -1.802,-1.446 -2.074,-1.82 -0.471,-0.628 -0.706,-1.307 -0.706,-2.038 0,-0.579 0.138,-1.108 0.416,-1.585 0.278,-0.477 0.667,-0.851 1.168,-1.123 0.508,-0.277 1.057,-0.416 1.649,-0.416 0.628,0 1.213,0.157 1.757,0.471 0.549,0.308 1.129,0.878 1.738,1.711 l -1.086,0.824 c -0.502,-0.664 -0.93,-1.101 -1.286,-1.313 -0.351,-0.211 -0.734,-0.317 -1.151,-0.317 -0.537,0 -0.978,0.163 -1.322,0.489 -0.338,0.326 -0.507,0.728 -0.507,1.205 0,0.29 0.06,0.57 0.181,0.842 0.121,0.272 0.341,0.568 0.661,0.888 0.175,0.169 0.749,0.612 1.721,1.331 1.153,0.851 1.944,1.609 2.373,2.273 0.428,0.664 0.643,1.331 0.643,2.001 0,0.966 -0.369,1.806 -1.105,2.518 -0.731,0.713 -1.621,1.069 -2.672,1.069 -0.809,0 -1.542,-0.215 -2.2,-0.643 -0.658,-0.435 -1.265,-1.159 -1.821,-2.174 z"
   style="fill:#ffffff;fill-rule:nonzero"
   id="path21" />
                </g>
            </g>
        </g>
    </g>
</svg>
