<?xml version="1.0" encoding="UTF-8" standalone="no"?>
<!DOCTYPE svg PUBLIC "-//W3C//DTD SVG 1.1//EN" "http://www.w3.org/Graphics/SVG/1.1/DTD/svg11.dtd">
<svg width="100%" height="100%" viewBox="0 0 4500 2100" version="1.1" xmlns="http://www.w3.org/2000/svg" xmlns:xlink="http://www.w3.org/1999/xlink" xml:space="preserve" xmlns:serif="http://www.serif.com/" style="fill-rule:evenodd;clip-rule:evenodd;stroke-linejoin:round;stroke-miterlimit:2;">
    <g transform="matrix(1,0,0,1,-3250,-11050)">
        <g id="W_MainRectangle" transform="matrix(1.5,0,0,0.7,-1562.5,11050)">
            <rect x="3208.33" y="0" width="3000" height="3000" style="fill:none;"/>
            <g transform="matrix(1.62043,0,0,3.47235,2636.02,-4633.86)">
                <g transform="matrix(3.23409,0,0,3.23409,438.018,995.306)">
                    <path d="M230.476,203.576L252.979,203.576L252.979,211.992L239.015,211.992L239.015,220.223L252.979,220.223L252.979,228.515L239.015,228.515L239.015,248.923L230.476,248.923L230.476,203.576Z" style="fill:white;fill-rule:nonzero;"/>
                    <path d="M293.445,202.435C299.857,202.435 305.364,204.758 309.968,209.402C314.592,214.047 316.904,219.709 316.904,226.388C316.904,233.006 314.623,238.606 310.06,243.189C305.519,247.772 300,250.064 293.506,250.064C286.704,250.064 281.052,247.71 276.551,243.004C272.05,238.298 269.8,232.708 269.8,226.234C269.8,221.898 270.848,217.911 272.944,214.273C275.041,210.635 277.918,207.758 281.576,205.641C285.255,203.504 289.211,202.435 293.445,202.435ZM293.352,210.882C289.16,210.882 285.635,212.341 282.778,215.26C279.922,218.178 278.493,221.887 278.493,226.388C278.493,231.403 280.292,235.369 283.888,238.288C286.683,240.569 289.889,241.709 293.506,241.709C297.596,241.709 301.079,240.23 303.957,237.27C306.834,234.311 308.272,230.663 308.272,226.327C308.272,222.011 306.824,218.363 303.926,215.383C301.028,212.382 297.503,210.882 293.352,210.882Z" style="fill:white;fill-rule:nonzero;"/>
                    <path d="M336.992,203.576L346.148,203.576C351.163,203.576 354.728,204.028 356.845,204.932C358.982,205.816 360.699,207.296 361.993,209.372C363.288,211.447 363.935,213.903 363.935,216.739C363.935,219.719 363.216,222.216 361.777,224.23C360.359,226.224 358.212,227.734 355.335,228.762L366.062,248.923L356.629,248.923L346.425,229.718L345.624,229.718L345.624,248.923L336.992,248.923L336.992,203.576ZM345.624,221.302L348.337,221.302C351.091,221.302 352.981,220.942 354.009,220.223C355.057,219.503 355.581,218.311 355.581,216.647C355.581,215.66 355.324,214.807 354.811,214.088C354.297,213.348 353.608,212.824 352.745,212.516C351.882,212.187 350.299,212.023 347.998,212.023L345.624,212.023L345.624,221.302Z" style="fill:white;fill-rule:nonzero;"/>
                    <path d="M384.394,248.923L384.394,203.576L391.515,203.576C395.646,203.576 398.667,203.843 400.578,204.378C403.291,205.097 405.449,206.433 407.052,208.385C408.655,210.337 409.456,212.639 409.456,215.29C409.456,217.017 409.086,218.589 408.346,220.007C407.627,221.404 406.445,222.72 404.801,223.953C407.555,225.248 409.569,226.871 410.843,228.824C412.118,230.755 412.755,233.047 412.755,235.698C412.755,238.246 412.097,240.569 410.782,242.665C409.466,244.761 407.771,246.333 405.695,247.382C403.619,248.409 400.753,248.923 397.094,248.923L384.394,248.923ZM393.025,211.807L393.025,221.363L394.906,221.363C397.002,221.363 398.554,220.921 399.561,220.038C400.588,219.154 401.102,217.952 401.102,216.431C401.102,215.013 400.619,213.893 399.653,213.071C398.687,212.228 397.218,211.807 395.245,211.807L393.025,211.807ZM393.025,229.07L393.025,240.692L395.183,240.692C398.759,240.692 401.164,240.24 402.397,239.336C403.65,238.431 404.277,237.116 404.277,235.39C404.277,233.437 403.548,231.896 402.088,230.766C400.629,229.635 398.204,229.07 394.813,229.07L393.025,229.07Z" style="fill:white;fill-rule:nonzero;"/>
                    <path d="M432.411,203.576L457.166,203.576L457.166,212.023L440.981,212.023L440.981,220.223L457.166,220.223L457.166,228.515L440.981,228.515L440.981,240.445L457.166,240.445L457.166,248.923L432.411,248.923L432.411,203.576Z" style="fill:white;fill-rule:nonzero;"/>
                    <path d="M500.343,209.741L493.962,215.383C491.722,212.259 489.441,210.697 487.119,210.697C485.988,210.697 485.063,211.005 484.344,211.622C483.625,212.218 483.265,212.896 483.265,213.657C483.265,214.417 483.522,215.136 484.036,215.814C484.735,216.719 486.841,218.661 490.355,221.641C493.644,224.395 495.637,226.131 496.336,226.851C498.083,228.618 499.316,230.314 500.035,231.937C500.775,233.54 501.145,235.297 501.145,237.209C501.145,240.928 499.861,244.001 497.292,246.426C494.723,248.851 491.373,250.064 487.242,250.064C484.015,250.064 481.2,249.272 478.795,247.69C476.411,246.107 474.366,243.621 472.661,240.23L479.905,235.852C482.083,239.86 484.591,241.863 487.427,241.863C488.907,241.863 490.15,241.432 491.157,240.569C492.164,239.706 492.667,238.709 492.667,237.578C492.667,236.551 492.287,235.523 491.527,234.496C490.766,233.468 489.092,231.896 486.502,229.779C481.57,225.751 478.384,222.648 476.946,220.469C475.507,218.27 474.788,216.082 474.788,213.903C474.788,210.759 475.98,208.067 478.364,205.826C480.768,203.566 483.728,202.435 487.242,202.435C489.503,202.435 491.65,202.959 493.685,204.008C495.74,205.056 497.959,206.967 500.343,209.741Z" style="fill:white;fill-rule:nonzero;"/>
                </g>
                <g transform="matrix(0.736035,0,0,0.736035,351.828,881.953)">
                    <path d="M526.595,1260.02C522.254,1262.38 519.773,1263.99 519.773,1263.99L479.402,1290.89L479.391,1290.9C478.268,1291.64 392.689,1347.73 263.71,1347.73L199.904,1347.73L445.079,1184.35C445.742,1183.9 446.407,1183.46 447.071,1183.02C486.454,1157.73 529.954,1185.12 529.954,1185.12L632.113,1252.23C630.812,1251.38 629.496,1250.59 628.168,1249.85L706.023,1301.3C712.596,1305.3 719.5,1309.66 726.752,1314.41C727.404,1314.84 728.057,1315.27 728.712,1315.69L777.477,1347.73L726.474,1347.73C611.804,1347.73 576.52,1312.53 575.807,1287.65C575.807,1287.65 574.819,1256.26 616.794,1262.42L606.131,1256.58C568.39,1239.29 532.303,1256.99 527.208,1259.68C527,1259.8 526.795,1259.91 526.595,1260.02ZM466.767,1169.9L652.092,1048.83L979.617,1264.49L915.812,1264.49C786.832,1264.49 701.253,1208.4 700.131,1207.66L700.119,1207.66L618.954,1156.16C618.954,1156.16 558.12,1110.55 466.767,1169.9Z" style="fill:white;"/>
                </g>
                <g transform="matrix(3.19579,0,0,3.19579,446.822,1005.29)">
                    <path d="M242.941,263.453L241.89,264.259C241.311,263.505 240.613,262.934 239.798,262.548C238.989,262.155 238.099,261.959 237.127,261.959C236.064,261.959 235.08,262.216 234.174,262.729C233.269,263.236 232.565,263.921 232.064,264.785C231.569,265.642 231.322,266.608 231.322,267.683C231.322,269.307 231.877,270.662 232.988,271.749C234.105,272.836 235.512,273.379 237.208,273.379C239.074,273.379 240.634,272.648 241.89,271.187L242.941,271.984C242.277,272.83 241.447,273.485 240.45,273.95C239.46,274.408 238.352,274.638 237.127,274.638C234.796,274.638 232.958,273.862 231.611,272.31C230.482,271 229.918,269.418 229.918,267.565C229.918,265.615 230.6,263.976 231.965,262.647C233.335,261.313 235.05,260.646 237.109,260.646C238.352,260.646 239.475,260.893 240.477,261.388C241.48,261.877 242.301,262.566 242.941,263.453Z" style="fill:white;fill-rule:nonzero;"/>
                    <path d="M259.009,260.646C261.026,260.646 262.713,261.319 264.072,262.665C265.43,264.012 266.11,265.669 266.11,267.637C266.11,269.587 265.43,271.242 264.072,272.6C262.719,273.959 261.068,274.638 259.118,274.638C257.144,274.638 255.477,273.962 254.119,272.609C252.761,271.257 252.081,269.621 252.081,267.701C252.081,266.421 252.389,265.234 253.005,264.142C253.627,263.049 254.472,262.194 255.541,261.579C256.61,260.957 257.766,260.646 259.009,260.646ZM259.073,261.95C258.089,261.95 257.156,262.207 256.274,262.72C255.393,263.233 254.705,263.924 254.21,264.794C253.715,265.663 253.467,266.632 253.467,267.701C253.467,269.282 254.013,270.62 255.106,271.713C256.205,272.799 257.527,273.343 259.073,273.343C260.105,273.343 261.059,273.092 261.935,272.591C262.816,272.09 263.501,271.405 263.99,270.535C264.485,269.666 264.733,268.7 264.733,267.637C264.733,266.581 264.485,265.627 263.99,264.775C263.501,263.918 262.81,263.233 261.917,262.72C261.023,262.207 260.075,261.95 259.073,261.95Z" style="fill:white;fill-rule:nonzero;"/>
                    <path d="M281.273,260.981L287.485,274.303L286.054,274.303L283.962,269.919L278.221,269.919L276.138,274.303L274.652,274.303L280.947,260.981L281.273,260.981ZM281.11,263.806L278.818,268.633L283.374,268.633L281.11,263.806Z" style="fill:white;fill-rule:nonzero;"/>
                    <path d="M295.222,271.821L296.354,271.142C297.151,272.609 298.072,273.343 299.116,273.343C299.563,273.343 299.983,273.24 300.375,273.035C300.767,272.824 301.066,272.543 301.272,272.193C301.477,271.842 301.58,271.471 301.58,271.079C301.58,270.632 301.429,270.194 301.127,269.765C300.71,269.174 299.949,268.461 298.845,267.628C297.734,266.789 297.042,266.182 296.771,265.808C296.3,265.18 296.064,264.501 296.064,263.77C296.064,263.191 296.203,262.662 296.481,262.185C296.759,261.708 297.148,261.334 297.649,261.062C298.156,260.785 298.706,260.646 299.297,260.646C299.925,260.646 300.511,260.803 301.054,261.117C301.604,261.425 302.183,261.995 302.793,262.828L301.706,263.652C301.205,262.988 300.777,262.551 300.42,262.339C300.07,262.128 299.687,262.022 299.27,262.022C298.733,262.022 298.292,262.185 297.948,262.511C297.61,262.837 297.441,263.239 297.441,263.716C297.441,264.006 297.501,264.286 297.622,264.558C297.743,264.83 297.963,265.126 298.283,265.446C298.458,265.615 299.032,266.058 300.004,266.777C301.157,267.628 301.948,268.386 302.376,269.05C302.805,269.714 303.019,270.381 303.019,271.051C303.019,272.017 302.651,272.857 301.915,273.569C301.184,274.282 300.294,274.638 299.243,274.638C298.434,274.638 297.7,274.423 297.042,273.995C296.384,273.56 295.777,272.836 295.222,271.821Z" style="fill:white;fill-rule:nonzero;"/>
                    <path d="M311.562,262.276L311.562,260.981L318.871,260.981L318.871,262.276L315.9,262.276L315.9,274.303L314.542,274.303L314.542,262.276L311.562,262.276Z" style="fill:white;fill-rule:nonzero;"/>
                    <path d="M333.273,260.981L339.486,274.303L338.055,274.303L335.963,269.919L330.221,269.919L328.138,274.303L326.653,274.303L332.947,260.981L333.273,260.981ZM333.11,263.806L330.819,268.633L335.374,268.633L333.11,263.806Z" style="fill:white;fill-rule:nonzero;"/>
                    <path d="M348.599,260.981L349.939,260.981L349.939,273.017L355.056,273.017L355.056,274.303L348.599,274.303L348.599,260.981Z" style="fill:white;fill-rule:nonzero;"/>
                    <path d="M376.435,260.981L379.061,260.981C380.117,260.981 380.93,261.108 381.497,261.361C382.065,261.609 382.511,261.992 382.837,262.511C383.169,263.031 383.335,263.607 383.335,264.241C383.335,264.833 383.191,265.373 382.901,265.862C382.611,266.345 382.185,266.738 381.624,267.04C382.318,267.275 382.852,267.553 383.227,267.873C383.601,268.187 383.891,268.57 384.096,269.023C384.308,269.47 384.413,269.956 384.413,270.481C384.413,271.55 384.021,272.455 383.236,273.198C382.457,273.934 381.409,274.303 380.093,274.303L376.435,274.303L376.435,260.981ZM377.739,262.285L377.739,266.551L378.499,266.551C379.423,266.551 380.102,266.466 380.537,266.297C380.972,266.122 381.316,265.85 381.569,265.482C381.823,265.108 381.95,264.694 381.95,264.241C381.95,263.631 381.736,263.154 381.307,262.81C380.884,262.46 380.208,262.285 379.278,262.285L377.739,262.285ZM377.739,267.891L377.739,272.999L379.387,272.999C380.359,272.999 381.071,272.905 381.524,272.718C381.977,272.525 382.339,272.226 382.611,271.821C382.889,271.417 383.028,270.979 383.028,270.508C383.028,269.916 382.834,269.4 382.448,268.959C382.062,268.519 381.53,268.217 380.854,268.054C380.401,267.945 379.613,267.891 378.49,267.891L377.739,267.891Z" style="fill:white;fill-rule:nonzero;"/>
                    <path d="M394.142,260.981L395.474,260.981L395.474,269.023C395.474,269.977 395.492,270.572 395.528,270.807C395.594,271.332 395.748,271.773 395.99,272.129C396.231,272.479 396.603,272.775 397.104,273.017C397.605,273.252 398.109,273.37 398.616,273.37C399.057,273.37 399.48,273.276 399.884,273.089C400.289,272.902 400.627,272.642 400.898,272.31C401.17,271.978 401.369,271.577 401.496,271.106C401.587,270.768 401.632,270.073 401.632,269.023L401.632,260.981L402.963,260.981L402.963,269.023C402.963,270.212 402.845,271.175 402.61,271.912C402.381,272.642 401.916,273.279 401.215,273.823C400.521,274.366 399.679,274.638 398.689,274.638C397.614,274.638 396.693,274.381 395.926,273.868C395.16,273.355 394.647,272.676 394.387,271.83C394.224,271.311 394.142,270.375 394.142,269.023L394.142,260.981Z" style="fill:white;fill-rule:nonzero;"/>
                    <rect x="413.1" y="260.981" width="1.331" height="13.322" style="fill:white;fill-rule:nonzero;"/>
                    <path d="M424.532,260.981L425.872,260.981L425.872,273.017L430.989,273.017L430.989,274.303L424.532,274.303L424.532,260.981Z" style="fill:white;fill-rule:nonzero;"/>
                    <path d="M440.148,274.303L440.148,260.981L442.91,260.981C444.902,260.981 446.348,261.141 447.248,261.461C448.54,261.914 449.548,262.699 450.273,263.816C451.003,264.932 451.368,266.264 451.368,267.809C451.368,269.144 451.079,270.318 450.499,271.332C449.925,272.347 449.177,273.095 448.253,273.578C447.335,274.061 446.046,274.303 444.386,274.303L440.148,274.303ZM441.425,273.044L442.964,273.044C444.806,273.044 446.082,272.929 446.795,272.7C447.797,272.374 448.585,271.788 449.159,270.943C449.732,270.092 450.019,269.053 450.019,267.827C450.019,266.541 449.708,265.443 449.086,264.531C448.464,263.619 447.598,262.994 446.487,262.656C445.654,262.403 444.28,262.276 442.366,262.276L441.425,262.276L441.425,273.044Z" style="fill:white;fill-rule:nonzero;"/>
                    <path d="M461.007,260.981L468.641,260.981L468.641,262.294L462.338,262.294L462.338,266.46L468.587,266.46L468.587,267.764L462.338,267.764L462.338,272.99L468.587,272.99L468.587,274.303L461.007,274.303L461.007,260.981Z" style="fill:white;fill-rule:nonzero;"/>
                    <path d="M478.063,260.981L480.716,260.981C482.195,260.981 483.198,261.041 483.723,261.162C484.514,261.343 485.157,261.733 485.652,262.33C486.147,262.922 486.395,263.652 486.395,264.522C486.395,265.246 486.222,265.883 485.878,266.433C485.54,266.982 485.054,267.399 484.42,267.683C483.786,267.96 482.911,268.102 481.794,268.108L486.585,274.303L484.936,274.303L480.155,268.108L479.394,268.108L479.394,274.303L478.063,274.303L478.063,260.981ZM479.394,262.285L479.394,266.813L481.685,266.831C482.573,266.831 483.228,266.747 483.65,266.578C484.079,266.409 484.411,266.14 484.647,265.772C484.888,265.397 485.009,264.981 485.009,264.522C485.009,264.075 484.888,263.671 484.647,263.308C484.405,262.94 484.088,262.677 483.696,262.52C483.303,262.363 482.651,262.285 481.74,262.285L479.394,262.285Z" style="fill:white;fill-rule:nonzero;"/>
                    <path d="M494.919,271.821L496.051,271.142C496.848,272.609 497.769,273.343 498.813,273.343C499.26,273.343 499.68,273.24 500.072,273.035C500.465,272.824 500.764,272.543 500.969,272.193C501.174,271.842 501.277,271.471 501.277,271.079C501.277,270.632 501.126,270.194 500.824,269.765C500.407,269.174 499.647,268.461 498.542,267.628C497.431,266.789 496.74,266.182 496.468,265.808C495.997,265.18 495.762,264.501 495.762,263.77C495.762,263.191 495.9,262.662 496.178,262.185C496.456,261.708 496.845,261.334 497.346,261.062C497.854,260.785 498.403,260.646 498.995,260.646C499.623,260.646 500.208,260.803 500.752,261.117C501.301,261.425 501.881,261.995 502.49,262.828L501.404,263.652C500.902,262.988 500.474,262.551 500.118,262.339C499.767,262.128 499.384,262.022 498.967,262.022C498.43,262.022 497.989,262.185 497.645,262.511C497.307,262.837 497.138,263.239 497.138,263.716C497.138,264.006 497.198,264.286 497.319,264.558C497.44,264.83 497.66,265.126 497.98,265.446C498.155,265.615 498.729,266.058 499.701,266.777C500.854,267.628 501.645,268.386 502.074,269.05C502.502,269.714 502.717,270.381 502.717,271.051C502.717,272.017 502.348,272.857 501.612,273.569C500.881,274.282 499.991,274.638 498.94,274.638C498.131,274.638 497.398,274.423 496.74,273.995C496.082,273.56 495.475,272.836 494.919,271.821Z" style="fill:white;fill-rule:nonzero;"/>
                </g>
            </g>
        </g>
    </g>
</svg>
