<?xml version="1.0" encoding="UTF-8" standalone="no"?>
<svg
   width="100%"
   height="100%"
   viewBox="0 0 2359.1074 904.35486"
   version="1.1"
   xml:space="preserve"
   style="clip-rule:evenodd;fill-rule:evenodd;stroke-linejoin:round;stroke-miterlimit:2"
   id="svg2"
   xmlns="http://www.w3.org/2000/svg"
   xmlns:svg="http://www.w3.org/2000/svg"><defs
   id="defs2" />
    <g
   transform="translate(-13120.478,-25047.831)"
   id="g2">
        <g
   id="Sky_JustSymbol"
   transform="translate(92.3466,24000)">
            <rect
   x="12707.7"
   y="0"
   width="100%"
   height="100%"
   style="fill:none"
   id="rect1" />
            <g
   transform="matrix(3.02561,0,0,3.02561,12423.3,-2125.52)"
   id="g1">
                <path
   d="m 526.595,1260.02 c -4.341,2.36 -6.822,3.97 -6.822,3.97 l -40.371,26.9 -0.011,0.01 c -1.123,0.74 -86.702,56.83 -215.681,56.83 h -63.806 l 245.175,-163.38 c 0.663,-0.45 1.328,-0.89 1.992,-1.33 39.383,-25.29 82.883,2.1 82.883,2.1 l 102.159,67.11 c -1.301,-0.85 -2.617,-1.64 -3.945,-2.38 l 77.855,51.45 c 6.573,4 13.477,8.36 20.729,13.11 0.652,0.43 1.305,0.86 1.96,1.28 l 48.765,32.04 h -51.003 c -114.67,0 -149.954,-35.2 -150.667,-60.08 0,0 -0.988,-31.39 40.987,-25.23 l -10.663,-5.84 c -37.741,-17.29 -73.828,0.41 -78.923,3.1 -0.208,0.12 -0.413,0.23 -0.613,0.34 z m -59.828,-90.12 185.325,-121.07 327.525,215.66 h -63.805 c -128.98,0 -214.559,-56.09 -215.681,-56.83 h -0.012 l -81.165,-51.5 c 0,0 -60.834,-45.61 -152.187,13.74 z"
   style="fill:#d2eeff"
   id="path1" />
            </g>
        </g>
    </g>
</svg>
